<svg width="13" height="15" viewBox="0 0 13 15" fill="none" xmlns="http://www.w3.org/2000/svg">
<path fill-rule="evenodd" clip-rule="evenodd" d="M9.0223 0.0146861C9.03323 -0.000891719 9.05467 -0.00467756 9.07026 0.00623019L10.1353 0.75201C10.1509 0.762917 10.1547 0.784386 10.1438 0.799964L8.66138 2.91706C9.38207 3.1473 9.87306 3.39565 9.87306 3.39565C9.87306 3.39565 8.67293 5.46 6.63738 5.46C4.60183 5.46 3.15539 3.53598 3.15539 3.53598C3.15539 3.53598 3.66827 3.20867 4.42853 2.92795L2.80253 0.99018C2.79032 0.97561 2.79222 0.953892 2.80678 0.941669L3.8028 0.1059C3.81739 0.0936759 3.8391 0.0955758 3.85132 0.110144L5.9101 2.5637C6.08638 2.54376 6.26597 2.53262 6.44721 2.53262C6.70769 2.53262 6.96785 2.55242 7.22183 2.58603L9.0223 0.0146861ZM9.42502 5.55776C9.96822 5.16981 10.7902 4.15723 10.7902 4.15723C10.7902 4.15723 12.8898 5.82103 12.8898 9.3489C12.8898 12.8767 9.25993 15 9.25993 15C9.25993 15 7.52567 13.2486 7.09992 11.0284C6.6742 8.80821 7.7297 6.34296 7.7297 6.34296C7.7297 6.34296 8.88179 5.94572 9.42502 5.55776ZM3.57484 5.55776C3.03164 5.16981 2.20967 4.15723 2.20967 4.15723C2.20967 4.15723 0.110107 5.82103 0.110107 9.3489C0.110107 12.8767 3.73993 15 3.73993 15C3.73993 15 5.47419 13.2486 5.89993 11.0284C6.32565 8.80821 5.27016 6.34296 5.27016 6.34296C5.27016 6.34296 4.11807 5.94572 3.57484 5.55776Z" fill="white"/>
</svg>
