<svg width="13" height="15" viewBox="0 0 13 15" fill="none" xmlns="http://www.w3.org/2000/svg">
<path fill-rule="evenodd" clip-rule="evenodd" d="M9.32495 11.5838C9.51028 10.9061 9.15055 9.51299 9.15055 9.51299C9.15055 9.51299 8.88963 10.6479 8.48193 11.0674C8.13412 11.4252 7.708 11.6734 7.09686 11.7386C7.59652 11.4959 7.94014 10.9898 7.94014 10.4049C7.94014 9.58386 7.26303 8.91824 6.42778 8.91824C5.59253 8.91824 4.91539 9.58386 4.91539 10.4049C4.91539 10.6292 4.96592 10.8418 5.05636 11.0325C4.53394 10.6163 4.45179 9.94905 4.45179 9.94905C4.45179 9.94905 3.86843 12.371 5.47584 13.5103C7.08321 14.6496 10.232 13.6703 10.232 13.6703C10.232 13.6703 5.72589 16.8409 2.3868 13.3901C-0.489544 10.4175 1.63607 6.504 1.63607 6.504C1.63607 6.504 1.54427 6.86704 1.54427 7.28848C1.54427 7.70992 1.77277 8.03057 1.77277 8.03057C1.77277 8.03057 2.45436 6.59388 2.98481 6.00961C3.48684 5.45666 4.11617 5.00819 4.65974 4.62082C5.07816 4.32264 5.44578 4.06067 5.66533 3.81513C6.87462 2.46295 6.13314 0 6.13314 0C6.13314 0 7.49633 1.20176 7.87689 2.75384C8.02197 3.34547 7.92863 4.01862 7.84519 4.62059C7.70972 5.59782 7.60024 6.38745 8.5789 6.33621C10.1604 6.25339 8.78612 3.81513 8.78612 3.81513C8.78612 3.81513 12.3736 5.70068 12.1056 8.99839C11.8375 12.2961 8.1843 13.0458 8.1843 13.0458C8.1843 13.0458 9.13959 12.2615 9.32495 11.5838Z" fill="white"/>
</svg>
