<svg width="15" height="13" viewBox="0 0 15 13" fill="none" xmlns="http://www.w3.org/2000/svg">
<path fill-rule="evenodd" clip-rule="evenodd" d="M5.23571 13C7.43307 13 9.31429 11.7788 10.0909 10.0476C10.1004 10.0264 6.97288 10.8603 7.0726 10.5656C7.11713 10.4339 9.03432 9.73355 10.4311 8.91664C11.2339 8.4471 11.6036 7.45314 11.6036 7.45314C11.6036 7.45314 10.2511 8.10983 9.56732 8.27641C8.18943 8.61216 6.97651 8.576 6.97651 8.54102C6.97651 8.46538 8.99053 8.0827 11.7898 6.37689C13.1065 5.57453 13.4641 4.19248 13.4641 4.19248C13.4641 4.19248 12.0165 5.05475 11.1414 5.33942C9.06614 6.01451 7.17233 6.21795 7.17233 6.1266C7.17233 5.93102 8.83894 5.47273 10.606 4.61652C11.5247 4.17136 12.3204 3.58975 13.2424 2.94296C14.7512 1.88473 15 0 15 0C15 0 13.512 0.95977 12.7858 1.2785C9.78931 2.59369 7.14344 3.28357 5.23571 3.43293C2.35594 3.6584 0 5.66767 0 8.27641C0 10.8852 2.3441 13 5.23571 13Z" fill="white"/>
</svg>
