<svg width="15" height="11" viewBox="0 0 15 11" fill="none" xmlns="http://www.w3.org/2000/svg">
<path fill-rule="evenodd" clip-rule="evenodd" d="M3.30364 10.8952C3.29957 10.8952 3.29673 10.8912 3.29808 10.8873L7.12763 0.0664259C7.12848 0.0640733 7.13071 0.0625 7.1332 0.0625H11.2214C11.2238 0.0625 11.2261 0.0640851 11.2269 0.0664522L14.9997 10.8874C15.001 10.8912 14.9981 10.8952 14.9941 10.8952H3.41872H3.30364ZM0.00589766 10.9375C0.00178454 10.9375 -0.00106305 10.9334 0.00037971 10.9296L2.85214 3.31611C2.853 3.31379 2.8552 3.31227 2.85766 3.31227H5.33551C5.33961 3.31227 5.34245 3.31634 5.34104 3.32018L2.58348 10.9336C2.58263 10.936 2.58042 10.9375 2.57794 10.9375H0.00589766Z" fill="white"/>
</svg>
