<svg width="15" height="13" viewBox="0 0 15 13" fill="none" xmlns="http://www.w3.org/2000/svg">
<path fill-rule="evenodd" clip-rule="evenodd" d="M11.5816 6.1841C11.5808 6.18293 11.5804 6.18147 11.5807 6.18004L12.5357 0.611494C12.5361 0.60893 12.5383 0.607056 12.5409 0.607056H12.8432C12.8455 0.607056 12.8475 0.608567 12.8482 0.610789L14.9998 7.42296C15.0004 7.42507 14.9997 7.4274 14.9979 7.42878L13.4116 8.66732C13.4092 8.66916 13.4058 8.66869 13.404 8.66627L11.5816 6.1841ZM0 9.87563C0 9.87794 0.00148509 9.87999 0.0036806 9.88072L3.27374 10.9499C3.27532 10.9504 3.27708 10.9502 3.27845 10.9492L10.5878 5.90305C10.589 5.9022 10.5899 5.90089 10.5901 5.89942L11.3739 0.640046C11.3744 0.636818 11.3719 0.633918 11.3686 0.633918H4.89435C4.89274 0.633918 4.89125 0.634626 4.89022 0.635851L0.00122869 6.53368C0.000434452 6.53464 0 6.53584 0 6.5371V9.87563ZM4.63639 11.2223L8.20887 12.3926C8.21048 12.3931 8.21227 12.3929 8.21364 12.3919L12.4669 9.34096C12.4693 9.33929 12.4699 9.33604 12.4683 9.33365L10.8738 6.96097C10.8722 6.95848 10.8688 6.95784 10.8664 6.95954L4.63639 11.2223Z" fill="white"/>
</svg>
