<svg width="15" height="13" viewBox="0 0 15 13" fill="none" xmlns="http://www.w3.org/2000/svg">
<path fill-rule="evenodd" clip-rule="evenodd" d="M0.00149739 6.5091C-0.000498182 6.5057 -0.000499184 6.50148 0.00149472 6.49806L3.7733 0.0537392C3.77526 0.0503965 3.77886 0.0483398 3.78273 0.0483398H11.2586C11.2625 0.0483398 11.2661 0.0504141 11.2681 0.0537862L14.9985 6.49811C15.0005 6.50148 15.0005 6.50567 14.9985 6.50904L11.2681 12.9461C11.2661 12.9495 11.2625 12.9516 11.2586 12.9516H3.78273C3.77886 12.9516 3.77526 12.9495 3.7733 12.9462L0.00149739 6.5091ZM10.9751 6.49996C10.9751 8.41856 9.41978 9.9739 7.50118 9.9739C5.58259 9.9739 4.02724 8.41856 4.02724 6.49996C4.02724 4.58133 5.58259 3.02602 7.50118 3.02602C9.41978 3.02602 10.9751 4.58133 10.9751 6.49996Z" fill="white"/>
</svg>
