<svg width="11" height="15" viewBox="0 0 11 15" fill="none" xmlns="http://www.w3.org/2000/svg">
<path fill-rule="evenodd" clip-rule="evenodd" d="M10.3661 10.1523C10.3661 12.8296 8.18749 15 5.50005 15C2.81262 15 0.634033 12.8296 0.634033 10.1523C0.634033 7.54836 5.23684 0.396929 5.48927 0.00667442C5.49504 -0.00222486 5.50509 -0.00222478 5.51083 0.00667451C5.76327 0.396929 10.3661 7.54836 10.3661 10.1523ZM4.6889 13.4458C2.21965 12.9056 2.64219 10.1703 2.64219 10.1703C2.64219 10.1703 3.31646 11.8215 4.95273 12.3563C6.58898 12.8912 8.56637 12.1067 8.56637 12.1067C8.56637 12.1067 7.15815 13.9861 4.6889 13.4458Z" fill="white"/>
</svg>
