<svg width="26" height="26" viewBox="0 0 26 26" fill="none" xmlns="http://www.w3.org/2000/svg">
<path d="M9.69526 22.4936C9.30315 22.2754 8.92482 22.0682 8.55023 21.8545C8.44354 21.7936 8.36932 21.8245 8.29586 21.9035C7.52861 22.7288 6.49599 22.9503 5.45367 23.1293C4.7103 23.2569 3.95237 23.1964 3.20171 23.2412C2.36511 23.2912 1.54322 23.3657 0.845004 23.9026C0.671774 24.0358 0.57211 23.9311 0.533757 23.7638C0.478979 23.5363 0.491067 23.2978 0.568566 23.077C1.26598 21.1418 2.51013 19.7693 4.55254 19.2211C5.20528 19.0428 5.88164 18.9664 6.55771 18.9945C6.80334 19.0054 6.90348 18.9443 6.88546 18.6735C6.78476 17.1595 7.33338 15.8424 8.13619 14.6008C9.34758 12.7273 10.5637 10.8553 11.2608 8.70844C11.5136 7.92974 11.516 7.92744 10.7273 7.77912C10.2227 7.68424 9.72524 7.56718 9.26295 7.33679C9.03277 7.22207 8.78421 7.20352 8.53809 7.15839C8.0058 7.06079 7.90376 6.93474 7.90232 6.31008C7.90054 5.538 8.24095 4.8905 8.72108 4.31701C8.97221 4.01704 9.11295 3.73589 8.89968 3.35693C8.82582 3.22568 8.80371 3.0645 8.76291 2.91564C8.69954 2.68448 8.80503 2.52041 8.98854 2.39934C9.17048 2.27931 9.32237 2.36409 9.45211 2.49712C9.5347 2.59678 9.62635 2.68857 9.7259 2.7713C9.65672 2.26888 9.82567 1.85522 10.1215 1.50239C10.7393 0.765471 11.7649 0.778056 12.3909 1.51306C12.5569 1.70297 12.6812 1.92558 12.7558 2.16651C12.7928 2.29032 12.8155 2.41784 12.9615 2.45369C13.1113 2.49048 13.1556 2.3555 13.2264 2.27132C13.7531 1.64454 14.4479 1.42981 15.1402 1.68231C15.8274 1.93297 16.4623 2.79557 16.463 3.47935C16.4637 4.13197 15.9299 4.84588 15.2575 5.06453C15.0746 5.12401 14.9623 5.21432 14.9786 5.4074C15.0244 5.94968 14.8075 6.43053 14.6297 6.91812C14.1895 8.12484 13.7693 9.337 13.5085 10.598C13.4812 10.7302 13.4597 10.8636 13.4384 10.9969C13.3405 11.6104 13.3386 11.617 13.9042 11.8172C14.0755 11.8779 14.2292 12.0965 14.3801 12.0242C14.4992 11.9671 14.5213 11.723 14.6041 11.5715C14.7709 11.2662 15.1229 11.1849 15.6103 11.3266C15.953 11.4262 16.035 11.5486 16.0216 11.9499C16.0113 12.2586 16.003 12.5676 15.9827 12.8758C15.9738 13.0117 16.0169 13.0937 16.1429 13.1473C16.2856 13.2062 16.4241 13.2747 16.5575 13.3523C16.8798 13.5444 17.1717 13.6407 17.4489 13.2605C17.582 13.0781 17.78 13.1259 17.9698 13.2384C18.2143 13.3833 18.4234 13.5735 18.3319 13.8599C18.2078 14.248 18.3369 14.4971 18.6146 14.7449C18.9018 15.0056 19.1359 15.3193 19.3041 15.6688C19.3984 15.8599 19.5137 15.9463 19.7405 15.8562C20.036 15.7388 20.2722 15.8836 20.4512 16.1054C20.6344 16.3323 20.712 16.608 20.5074 16.8504C20.1238 17.3051 20.1372 17.7921 20.2931 18.3216C20.3975 18.6761 20.6097 18.8793 20.9755 18.8774C21.7763 18.8734 22.4478 19.2384 23.105 19.629C23.8513 20.0726 24.5443 20.6035 25.3247 20.9927C25.4076 21.034 25.5126 21.0851 25.4988 21.201C25.4895 21.2638 25.4624 21.3227 25.4206 21.3705C25.3789 21.4184 25.3242 21.4532 25.2632 21.4709C24.8355 21.6235 24.3888 21.7161 23.9357 21.7461C23.6413 21.7713 23.3468 21.7953 23.0042 21.8239C23.3996 22.1211 23.7806 22.3649 24.089 22.695C24.2388 22.8454 24.3777 23.0061 24.5048 23.1761C24.6541 23.3898 24.5806 23.5423 24.3239 23.535C23.5865 23.5142 22.862 23.6419 22.1313 23.6956C21.3234 23.755 20.6218 23.4403 19.9482 23.0396C19.853 22.9831 19.7741 22.8876 19.6243 22.8898C19.7063 23.3095 19.9095 23.671 20.0739 24.0454C20.2983 24.5563 20.2054 24.6859 19.6335 24.6608C18.464 24.6077 17.3139 24.3422 16.2396 23.8771C15.8911 23.7341 15.5292 23.6262 15.1594 23.555C15.0715 23.5305 14.9782 23.5338 14.8922 23.5642C14.8062 23.5947 14.7317 23.6508 14.6787 23.7251C14.2974 24.1854 13.7683 24.3545 13.1939 24.4102C12.5973 24.4681 11.9985 24.4689 11.3999 24.4705C10.5992 24.4726 9.82082 24.5726 9.11508 24.9918C8.94421 25.0933 8.82544 25.0456 8.74661 24.8658C8.66389 24.6912 8.63589 24.4957 8.66628 24.3049C8.77658 23.6258 9.1297 23.0861 9.59534 22.6046C9.6273 22.5716 9.65696 22.5363 9.69526 22.4936Z" fill="white"/>
</svg>
