<svg width="26" height="26" viewBox="0 0 26 26" fill="none" xmlns="http://www.w3.org/2000/svg">
<path d="M17.6357 6.98178C17.6173 7.38319 17.6359 7.78858 17.5731 8.19034C17.5526 8.32126 17.5435 8.44992 17.6663 8.56162C18.5358 9.35219 18.9336 10.38 19.1272 11.5071C19.3035 12.5333 19.2449 13.5564 18.9051 14.5311C18.4995 15.6944 17.8806 16.7347 16.7778 17.3944C16.6507 17.4705 16.6146 17.549 16.6286 17.6957C16.6521 17.9935 16.6386 18.2932 16.5884 18.5877C16.4944 19.205 16.8661 19.6287 17.2693 20.0071C17.9681 20.6687 18.8589 21.0912 19.8133 21.2139C20.6937 21.3344 21.4946 21.1073 22.22 20.6033C22.4349 20.454 22.6953 20.3389 22.671 20.0019C22.6651 19.9205 22.7494 19.8707 22.8264 19.849C23.0859 19.7761 23.0601 19.6364 22.9812 19.4168C22.6688 18.5466 22.6513 17.6408 22.7166 16.7303C22.7422 16.2779 22.8279 15.8309 22.9716 15.401C23.1284 14.9226 23.4072 14.4933 23.7803 14.1553C24.0818 13.8859 24.4344 13.7435 24.8178 13.8789C25.2181 14.0202 25.3764 14.3789 25.4473 14.7818C25.628 15.8093 25.3161 16.7545 24.9383 17.6767C24.6797 18.3081 24.4391 18.954 24.05 19.5248C23.974 19.636 23.892 19.743 23.8045 19.8454C23.7424 19.9183 23.7164 19.9835 23.7582 20.0796C23.8879 20.3776 23.7779 20.6249 23.5745 20.844C23.4952 20.9295 23.4075 21.0042 23.4149 21.1372C23.4373 21.5442 23.2522 21.8897 23.0576 22.2206C22.8386 22.593 22.5886 22.948 22.3392 23.3015C22.108 23.6239 21.8127 23.8951 21.4718 24.0979C20.7789 24.5211 20.0664 24.8842 19.2795 25.121C17.3553 25.6997 15.4651 25.5313 13.5559 25.0314C12.191 24.674 10.9988 24.0305 9.91853 23.1482C9.5507 22.8478 9.21446 22.5159 8.97124 22.1029C8.86115 21.9159 8.75024 21.9062 8.54517 21.9929C7.34762 22.4995 6.22568 21.727 6.28566 20.4576C6.2891 20.3419 6.31912 20.2284 6.3734 20.1261C6.45222 19.9894 6.43005 19.8724 6.3762 19.7422C6.17178 19.2481 6.201 18.7811 6.55915 18.3633C6.65948 18.2463 6.60503 18.1756 6.51619 18.0989C6.48239 18.0716 6.44272 18.0524 6.40029 18.0428C6.35785 18.0333 6.31378 18.0336 6.27151 18.0439C5.3479 18.1845 4.71913 17.382 4.63187 16.6156C4.57365 16.1043 4.62237 15.61 5.0083 15.2124C5.03671 15.1794 5.05827 15.141 5.07174 15.0996C5.08521 15.0582 5.09031 15.0145 5.08676 14.971C5.09826 14.5537 5.2209 14.1469 5.44204 13.7928C5.54197 13.6239 5.48697 13.5679 5.33449 13.4958C4.73583 13.213 4.1874 12.8659 3.79484 12.3081C3.33072 11.6487 3.079 10.9283 3.10899 10.1181C3.12374 9.9451 3.08022 9.77209 2.98535 9.62663C2.37888 8.72041 2.25006 7.70712 2.31681 6.6448C2.35907 5.95283 2.51935 5.27318 2.79072 4.63524C2.8799 4.42492 2.81006 4.35848 2.60401 4.30258C2.2135 4.19649 1.82885 4.06988 1.45166 3.9233C1.1753 3.81773 0.936915 3.63177 0.76728 3.38939C0.597645 3.14702 0.504546 2.85937 0.5 2.56356C0.501726 1.88479 1.41915 1.00629 2.27779 1.47501C2.88928 1.80881 3.42614 2.25463 4.03328 2.59431C4.21678 2.69697 4.32694 2.68851 4.49109 2.56513C5.09134 2.11395 5.67759 1.6429 6.35596 1.30242C6.80936 1.07486 7.29325 0.95367 7.77087 0.802129C8.91744 0.438348 10.0931 0.510945 11.2664 0.538338C11.6486 0.54726 12.0057 0.692786 12.3554 0.818109C13.3474 1.17358 14.3009 1.62369 15.1286 2.28494C15.9101 2.90932 16.5859 3.64529 16.9957 4.56966C17.3344 5.33374 17.6654 6.1126 17.6357 6.98178Z" fill="white"/>
</svg>
