<svg width="26" height="20" viewBox="0 0 26 20" fill="none" xmlns="http://www.w3.org/2000/svg">
<path d="M4.8023 10.0041C4.52905 10.0554 4.29591 10.0828 4.17887 10.3499C4.10749 10.5128 3.98599 10.5622 3.84224 10.4084C3.67191 10.2261 3.53777 10.3091 3.41715 10.4709C3.39413 10.5018 3.37743 10.5376 3.35326 10.5675C3.28297 10.6542 3.23279 10.7917 3.09021 10.7491C2.97607 10.715 2.96524 10.5895 2.93826 10.4869C2.92196 10.4249 2.9563 10.351 2.88344 10.2883C2.82444 10.3303 2.76617 10.3777 2.7024 10.4159C2.5411 10.5126 2.44026 10.4595 2.42111 10.2786C2.40768 10.1517 2.43007 10.0179 2.23612 10.0236C2.20996 10.0244 2.15441 9.96246 2.15954 9.95144C2.25754 9.74061 2.08243 9.49605 2.18817 9.31906C2.54275 8.72555 2.7984 8.076 3.23553 7.52836C3.8177 6.79902 4.49589 6.17694 5.23166 5.60752C6.10999 4.92776 7.087 4.43193 8.10522 4.00844C8.25143 3.94763 8.3516 3.86541 8.39421 3.714C8.39919 3.69523 8.40773 3.67759 8.41937 3.66205C8.88602 3.07096 8.92529 2.35424 9.02036 1.65105C9.07805 1.20013 9.20782 0.761406 9.4047 0.351656C9.57202 0.00872806 9.65282 -0.0147196 10.0137 0.090073C10.6315 0.2695 11.2163 0.508864 11.7006 0.948317C11.8126 1.04994 11.9371 1.05136 12.0788 1.01556C13.0862 0.761127 14.0691 0.828464 15.0197 1.25979C15.1738 1.32976 15.2932 1.31175 15.4477 1.22586C16.0886 0.869761 16.7345 0.511689 17.4922 0.47165C17.9155 0.449285 18.005 0.503165 18.0796 0.927727C18.1988 1.60599 18.1824 2.29418 18.111 2.97551C18.0502 3.5565 18.0302 3.54787 18.5669 3.80026C20.0334 4.48991 21.4027 5.33487 22.568 6.46841C23.4326 7.30945 24.2363 8.21049 24.853 9.25902C25.0374 9.57252 25.1501 9.92034 25.3657 10.2251C25.4553 10.3518 25.6484 10.6605 25.298 10.8223C25.2025 10.8664 25.2538 10.9558 25.2682 11.0288C25.3283 11.3335 25.3156 11.3447 25.0033 11.2602C24.9669 11.2503 24.9313 11.2379 24.8974 11.2274C24.8362 11.3017 24.8972 11.3621 24.9012 11.425C24.9116 11.5916 24.8265 11.6379 24.6855 11.582C24.5894 11.537 24.4966 11.4855 24.4076 11.4278C24.0917 11.2488 23.9365 11.2797 23.7267 11.5633C23.5597 11.7892 23.4281 11.7887 23.3566 11.5185C23.273 11.2026 23.058 11.1411 22.7941 11.0773C22.5557 11.0196 22.5543 11.1034 22.5998 11.2907C22.7295 11.8246 22.9232 12.3483 22.963 12.8973C22.9982 13.3831 23.2313 13.8229 23.2396 14.309C23.2424 14.4667 23.3922 14.4911 23.4738 14.5783C23.79 14.9163 24.1048 14.9609 24.4632 14.6313C24.5581 14.544 24.7124 14.4434 24.8573 14.5567C24.9834 14.6553 24.9583 14.8216 24.9084 14.935C24.612 15.6099 24.7765 16.3418 24.6439 17.0228C24.3734 18.4121 23.5337 19.3647 22.1431 19.7908C21.5387 19.976 20.9433 20.0312 20.3245 19.8689C19.8421 19.7502 19.4223 19.4539 19.1488 19.0391C19.0433 18.8829 18.9395 18.8092 18.7447 18.8592C17.8979 19.0769 17.0582 18.9838 16.2273 18.7682C15.8743 18.6708 15.5029 18.6604 15.145 18.7379C13.928 19.0018 12.6947 19.0733 11.4684 18.838C10.9271 18.7396 10.3971 18.5872 9.88615 18.3831C9.63515 18.2821 9.35825 18.265 9.09674 18.3343C8.43558 18.4831 7.76439 18.5558 7.08576 18.4672C6.91396 18.4448 6.77489 18.4544 6.65533 18.6168C6.29652 19.1041 5.78015 19.3314 5.2018 19.4272C3.34753 19.7343 1.65217 18.4353 1.11428 17.0045C1.10148 16.9785 1.09133 16.9513 1.08399 16.9233C0.9968 16.3051 0.810974 15.7048 0.533595 15.1455C0.438351 14.9579 0.556535 14.8539 0.750874 14.8453C0.827952 14.8403 0.905326 14.8479 0.979971 14.8677C1.20583 14.9341 1.34482 14.836 1.50841 14.6804C1.78555 14.4167 1.93277 14.1389 1.90141 13.7444C1.88 13.4752 2.05341 13.3877 2.30266 13.4928C2.33989 13.5037 2.37403 13.5231 2.40231 13.5497C2.71497 13.9508 3.15373 13.8436 3.56724 13.8465C3.69986 13.8474 3.77522 13.7879 3.84753 13.6828C4.05009 13.4009 4.17134 13.0687 4.19804 12.7226C4.26832 11.8465 4.4601 10.9844 4.76787 10.1612C4.78211 10.1094 4.7936 10.057 4.8023 10.0041Z" fill="white"/>
</svg>
