<svg width="100" height="59" viewBox="0 0 100 59" fill="none" xmlns="http://www.w3.org/2000/svg">
<path d="M55 0C83.3037 0 106.651 21.0628 110 48.2581H83.1562C80.0998 35.637 68.6534 26.2581 55 26.2581C41.3466 26.2581 29.9002 35.637 26.8438 48.2581H0C3.34888 21.0628 26.6963 0 55 0Z" fill="url(#paint0_linear_105_953)"/>
<path d="M83.1562 61.7419H110C106.651 88.9372 83.3037 110 55 110C26.6963 110 3.34888 88.9372 0 61.7419H26.8438C29.9002 74.363 41.3466 83.7419 55 83.7419C68.6534 83.7419 80.0998 74.363 83.1562 61.7419Z" fill="url(#paint1_linear_105_953)"/>
<path d="M55 73.0968C65.0695 73.0968 73.2324 64.9946 73.2324 55C73.2324 45.0054 65.0695 36.9032 55 36.9032C44.9305 36.9032 36.7676 45.0054 36.7676 55C36.7676 64.9946 44.9305 73.0968 55 73.0968Z" fill="url(#paint2_linear_105_953)"/>
<defs>
<linearGradient id="paint0_linear_105_953" x1="0" y1="0" x2="110" y2="110" gradientUnits="userSpaceOnUse">
<stop stop-color="white" stop-opacity="0.1"/>
<stop offset="1" stop-color="white" stop-opacity="0"/>
</linearGradient>
<linearGradient id="paint1_linear_105_953" x1="0" y1="0" x2="110" y2="110" gradientUnits="userSpaceOnUse">
<stop stop-color="white" stop-opacity="0.1"/>
<stop offset="1" stop-color="white" stop-opacity="0"/>
</linearGradient>
<linearGradient id="paint2_linear_105_953" x1="0" y1="0" x2="110" y2="110" gradientUnits="userSpaceOnUse">
<stop stop-color="white" stop-opacity="0.1"/>
<stop offset="1" stop-color="white" stop-opacity="0"/>
</linearGradient>
</defs>
</svg>
